<svg xmlns="http://www.w3.org/2000/svg" height="24" width="24"><path d="M2 9.5v5A1.5 1.5 45 0 0 3.5 16H5a2.76205 2.76205 19.90279 0 1 1.76822.64018l4.07945 3.39954A.70256.70256 154.90279 0 0 12 19.5v-15a.70256.70256 25.09721 0 0-1.15233-.53972L6.76822 7.35982A2.76205 2.76205 160.09721 0 1 5 8H3.5A1.5 1.5 135 0 0 2 9.5z" fill="#fff" fill-rule="evenodd"/><path d="M15 5a7 7 0 0 1 7 7 7 7 0 0 1-7 7" fill="none" stroke="#fff" stroke-width="2" stroke-linecap="round"/><path d="M15 9a3 3 0 0 1 3 3 3 3 0 0 1-3 3" fill="none" stroke="#fff" stroke-width="2" stroke-linecap="round"/></svg>